Coordinates
version=1
nRows=8
nColumns=63
inDegrees=yes

Units are S.I. units (second, meters, Newtons, ...)
If the header above contains a line with 'inDegrees', this indicates whether rotational values are in degrees (yes) or radians (no).

endheader
time	pelvis_tilt	pelvis_list	pelvis_rotation	pelvis_tx	pelvis_ty	pelvis_tz	hip_flexion_r	hip_adduction_r	hip_rotation_r	knee_angle_r	knee_angle_r_beta	ankle_angle_r	subtalar_angle_r	mtp_angle_r	hip_flexion_l	hip_adduction_l	hip_rotation_l	knee_angle_l	knee_angle_l_beta	ankle_angle_l	subtalar_angle_l	mtp_angle_l	L5_S1_Flex_Ext	L5_S1_Lat_Bending	L5_S1_axial_rotation	L4_L5_Flex_Ext	L4_L5_Lat_Bending	L4_L5_axial_rotation	L3_L4_Flex_Ext	L3_L4_Lat_Bending	L3_L4_axial_rotation	L2_L3_Flex_Ext	L2_L3_Lat_Bending	L2_L3_axial_rotation	L1_L2_Flex_Ext	L1_L2_Lat_Bending	L1_L2_axial_rotation	L1_T12_Flex_Ext	L1_T12_Lat_Bending	L1_T12_axial_rotation	Abs_r3	Abs_r2	Abs_r1	Abs_t1	Abs_t2	neck_flexion	neck_bending	neck_rotation	arm_flex_r	arm_add_r	arm_rot_r	elbow_flex_r	pro_sup_r	wrist_flex_r	wrist_dev_r	arm_flex_l	arm_add_l	arm_rot_l	elbow_flex_l	pro_sup_l	wrist_flex_l	wrist_dev_l
      4.70000000	      5.53575866	     -6.52739628	   -185.45049266	      2.66155161	      0.88336346	      0.88303261	     19.81090122	    -10.64564351	     -8.87659294	     32.32109916	      0.56410960	   -333.03029596	      2.94133668	      0.00000000	     13.17278915	      4.27175706	    -11.10865580	     21.50445617	      0.37532356	     16.46882230	    -17.91218029	      0.00000000	     -0.00147506	     -0.57502315	      0.47452621	     -0.00273933	     -0.76478078	      0.50418410	     -0.00242337	     -1.39811127	      0.50418410	     -0.00168584	     -1.39811127	      0.41521043	     -0.00136974	     -1.17258720	      0.38555255	     -0.00084285	     -0.89071085	      0.35589466	     -0.01053620	     -6.50477682	      2.63917243	      0.00000000	      0.00000000	      0.00000000	      0.00000000	      0.00000000	     -2.85927357	    -11.22647771	     35.61593289	     23.47676306	     60.85809397	      0.00000000	      5.00000014	    -13.08511382	     -8.54880367	     21.50096428	     24.29949518	     45.47386590	      0.00000000	      5.00000014
      4.73333333	      5.39190292	     -6.80503959	   -185.52109477	      2.66161879	      0.88378734	      0.88239020	     19.65341255	    -10.91290822	     -8.94686169	     32.20764509	      0.56212945	   -332.90941933	      3.06632434	      0.00000000	     12.95959972	      4.50216226	    -11.45197603	     21.14238656	      0.36900426	     16.47682835	    -17.85241746	      0.00000000	     -0.00128560	     -0.62006425	      0.50614302	     -0.00238748	     -0.82468545	      0.53777696	     -0.00211211	     -1.50762421	      0.53777696	     -0.00146931	     -1.50762421	      0.44287515	     -0.00119380	     -1.26443501	      0.41124121	     -0.00073459	     -0.96047952	      0.37960727	     -0.00918288	     -7.01429077	      2.81501565	      0.00000000	      0.00000000	      0.00000000	      0.00000000	      0.00000000	     -2.96551245	    -10.87820010	     34.97661224	     23.32610530	     59.97499629	      0.00000000	      5.00000014	    -12.77895817	     -8.46235946	     20.97022698	     23.48846491	     45.44445733	      0.00000000	      5.00000014
      4.76666667	      5.48310715	     -6.51019060	   -185.42580267	      2.66159941	      0.88382272	      0.88219080	     19.54090829	    -10.50897472	     -8.85832264	     31.89906907	      0.55674378	   -333.13411304	      2.59103979	      0.00000000	     13.07003483	      4.08055993	    -11.77140204	     21.16925070	      0.36947312	     16.96581386	    -17.68372272	      0.00000000	     -0.00143779	     -0.61562287	      0.39809880	     -0.00267013	     -0.81877842	      0.42297998	     -0.00236215	     -1.49682545	      0.42297998	     -0.00164325	     -1.49682545	      0.34833645	     -0.00133514	     -1.25537816	      0.32345528	     -0.00082156	     -0.95359983	      0.29857410	     -0.01027002	     -6.96404905	      2.21410611	      0.00000000	      0.00000000	      0.00000000	      0.00000000	      0.00000000	     -2.82169522	    -10.84557422	     34.99483262	     23.47297810	     59.17833893	      0.00000000	      5.00000014	    -13.09441813	     -8.42669589	     20.50705699	     23.69384156	     45.36927561	      0.00000000	      5.00000014
      4.80000000	      5.73341631	     -5.95828682	   -184.73037460	      2.66128241	      0.88357263	      0.88313942	     19.31464998	    -10.18906582	     -9.87439394	     31.47584944	      0.54935721	   -333.33057890	      2.69276414	      0.00000000	     13.36412610	      3.56622321	    -11.16182906	     21.33332945	      0.37233684	     17.59009118	    -17.71762902	      0.00000000	     -0.00304040	     -0.60122484	      0.04257507	     -0.00564633	     -0.79962904	      0.04523601	     -0.00499508	     -1.46181808	      0.04523601	     -0.00347487	     -1.46181808	      0.03725318	     -0.00282332	     -1.22601770	      0.03459224	     -0.00173729	     -0.93129728	      0.03193130	     -0.02171728	     -6.80117566	      0.23678976	      0.00000000	      0.00000000	      0.00000000	      0.00000000	      0.00000000	     -1.24223483	    -11.61629529	     41.90963312	     23.24676046	     62.40296898	      0.00000000	      5.00000014	    -14.55831149	     -7.57497873	     15.05528927	     24.96007052	     44.22360625	      0.00000000	      5.00000014
      4.83333333	      6.11079314	     -5.23892604	   -184.08367083	      2.66076215	      0.88316030	      0.88414551	     19.15035538	     -9.53345586	    -10.37119366	     30.83707946	      0.53820857	   -333.90377493	      1.88030388	      0.00000000	     13.82579791	      2.83147935	    -10.70989629	     21.62805118	      0.37748070	     18.28008260	    -17.59577140	      0.00000000	     -0.00048207	     -0.57008964	     -0.31892838	     -0.00089525	     -0.75821922	     -0.33886141	     -0.00079199	     -1.38611596	     -0.33886141	     -0.00055095	     -1.38611596	     -0.27906234	     -0.00044765	     -1.16252680	     -0.25912931	     -0.00027545	     -0.88306886	     -0.23919629	     -0.00344336	     -6.44896806	     -1.77378399	      0.00000000	      0.00000000	      0.00000000	      0.00000000	      0.00000000	     -0.55013781	    -11.81942194	     43.35089949	     23.46106251	     62.92376843	      0.00000000	      5.00000014	    -15.78561125	     -7.45294942	     14.20550144	     26.24717213	     44.08907305	      0.00000000	      5.00000014
      4.86666667	      6.39408010	     -4.49542835	   -183.66191779	      2.66024938	      0.88287419	      0.88495836	     19.00648103	     -8.83480461	    -10.73710191	     30.29826183	      0.52880443	   -334.75254103	      0.95646162	      0.00000000	     14.13235029	      2.06847626	    -10.39110523	     21.79367694	      0.38037142	     18.72176124	    -17.61931803	      0.00000000	     -0.00401639	     -0.53129298	     -0.65290711	     -0.00745883	     -0.70661966	     -0.69371380	     -0.00659852	     -1.29178575	     -0.69371380	     -0.00459033	     -1.29178575	     -0.57129372	     -0.00372962	     -1.08341264	     -0.53048703	     -0.00229496	     -0.82297282	     -0.48968033	     -0.02868864	     -6.01009243	     -3.63127346	      0.00000000	      0.00000000	      0.00000000	      0.00000000	      0.00000000	      1.72208979	    -12.75383765	     53.60063893	     23.35837341	     65.55617882	      0.00000000	      5.00000014	    -17.34266012	     -6.59223676	     10.02005740	     27.74170883	     44.02257056	      0.00000000	      5.00000014
      4.90000000	      6.63552379	     -4.03027924	   -183.31852053	      2.65957051	      0.88263895	      0.88551440	     18.88051496	     -8.44977159	    -11.11569032	     29.81615188	      0.52039002	   -335.44133510	      0.35040204	      0.00000000	     14.34603522	      1.58508242	    -10.24988348	     21.84523046	      0.38127120	     18.97532572	    -17.58918051	      0.00000000	     -0.00332831	     -0.49901660	     -0.84231717	     -0.00618100	     -0.66369208	     -0.89496199	     -0.00546808	     -1.21330896	     -0.89496199	     -0.00380392	     -1.21330896	     -0.73702753	     -0.00309067	     -1.01759465	     -0.68438270	     -0.00190180	     -0.77297671	     -0.63173788	     -0.02377377	     -5.64497557	     -4.68471541	      0.00000000	      0.00000000	      0.00000000	      0.00000000	      0.00000000	      1.95136987	    -12.86549461	     53.75208748	     23.60358548	     65.55128192	      0.00000000	      5.00000014	    -18.19645951	     -6.57403919	      9.92214334	     28.74080657	     44.04408592	      0.00000000	      5.00000014
      4.93333333	      6.82095592	     -3.59955420	   -182.87321068	      2.65926424	      0.88247849	      0.88587433	     18.76506773	     -7.93535869	    -10.95647228	     29.38007898	      0.51277911	   -336.23242727	     -1.29616529	      0.00000000	     14.63854043	      1.12319865	    -10.02644551	     22.11432604	      0.38596780	     19.04096338	    -17.65901055	      0.00000000	     -0.00360938	     -0.45137086	     -0.96846234	     -0.00670298	     -0.60032324	     -1.02899124	     -0.00592985	     -1.09746311	     -1.02899124	     -0.00412516	     -1.09746311	     -0.84740455	     -0.00335167	     -0.92043546	     -0.78687565	     -0.00206240	     -0.69917346	     -0.72634676	     -0.02578146	     -5.10599744	     -5.38629700	      0.00000000	      0.00000000	      0.00000000	      0.00000000	      0.00000000	      2.01090499	    -12.96480692	     53.97122975	     23.79663339	     64.04993989	      0.00000000	      5.00000014	    -18.59898136	     -6.36082873	      9.29225177	     29.13944531	     44.21029341	      0.00000000	      5.00000014
